<?xml version="1.0" standalone="no"?>
<!DOCTYPE svg PUBLIC "-//W3C//DTD SVG 20010904//EN"
 "http://www.w3.org/TR/2001/REC-SVG-20010904/DTD/svg10.dtd">
<svg version="1.0" xmlns="http://www.w3.org/2000/svg"
 width="466.000000pt" height="466.000000pt" viewBox="0 0 466.000000 466.000000"
 preserveAspectRatio="xMidYMid meet">
<metadata>
Created by potrace 1.14, written by Peter Selinger 2001-2017
</metadata>
<g transform="translate(0.000000,466.000000) scale(0.100000,-0.100000)"
fill="#000000" stroke="none">
<path d="M0 2330 l0 -2330 2330 0 2330 0 0 2330 0 2330 -2330 0 -2330 0 0
-2330z m2655 1070 c234 -22 273 -27 320 -40 17 -5 56 -14 87 -20 55 -11 57
-12 52 -38 -3 -15 -8 -74 -12 -132 -6 -85 -10 -105 -22 -103 -8 1 -95 15 -192
32 -249 43 -502 57 -750 42 -106 -6 -203 -14 -215 -17 -22 -6 -23 -3 -23 52
-1 33 -5 93 -10 134 -4 41 -7 76 -6 77 19 20 596 29 771 13z m-1850 -526 c232
-29 529 -116 646 -190 l40 -25 -75 -55 c-42 -30 -79 -54 -83 -54 -4 0 -34 18
-67 39 -191 125 -527 243 -796 282 -47 7 -89 16 -95 22 -14 13 266 1 430 -19z
m3350 -43 c-6 -4 -39 -16 -75 -26 -183 -49 -417 -159 -596 -279 -55 -36 -109
-66 -122 -66 -60 0 -96 96 -52 140 29 29 212 114 321 149 115 36 265 68 380
80 116 12 155 13 144 2z m-1195 -746 c15 -18 9 -66 -10 -76 -8 -4 -31 -11 -51
-14 -75 -12 -135 -72 -150 -150 -11 -59 -24 -75 -59 -75 -38 0 -54 23 -51 77
3 90 60 177 143 219 81 41 154 48 178 19z m228 -287 c41 -41 -32 -179 -119
-224 -35 -18 -74 -5 -82 27 -8 28 5 52 42 79 17 11 41 45 56 75 23 50 28 55
58 55 18 0 38 -5 45 -12z m-2788 -310 c122 -60 239 -87 575 -138 529 -78 741
-155 938 -339 58 -55 66 -67 69 -104 3 -46 4 -47 206 -174 l82 -53 0 -112 c0
-123 10 -148 58 -148 53 0 62 22 62 147 l0 113 82 53 c202 127 203 128 206
174 3 38 10 49 74 108 158 146 360 233 696 300 l32 7 -2 -268 -3 -268 -40 -8
c-69 -14 -197 -59 -266 -94 -160 -80 -334 -254 -374 -373 -15 -47 -18 -50 -63
-60 -26 -6 -127 -16 -225 -22 -184 -13 -475 -1 -579 22 -45 10 -48 13 -63 60
-20 58 -82 144 -156 215 -174 166 -300 218 -738 304 -349 68 -438 97 -522 167
l-33 28 168 5 167 5 -64 37 c-149 86 -266 203 -336 338 -45 86 -65 134 -54
128 5 -2 51 -25 103 -50z m3959 25 c-18 -48 -69 -145 -101 -191 -62 -90 -167
-180 -318 -271 l-35 -21 169 0 169 0 -22 -24 c-31 -33 -122 -80 -204 -105 -57
-17 -411 -91 -438 -91 -5 0 -8 115 -7 262 l3 263 185 27 c261 38 392 71 503
128 51 26 95 47 99 48 4 1 3 -10 -3 -25z"/>
</g>
</svg>
